# Blender v2.80 (sub 75) OBJ File: ''
# www.blender.org
mtllib houseOLD2.mtl
o Plane_Plane.001
v -3.000000 0.000000 1.000000
v 2.000000 0.000000 1.000000
v -3.000000 0.000000 -1.000000
v 2.000000 0.000000 -1.000000
vt 0.000000 0.000000
vt 1.000000 0.000000
vt 1.000000 1.000000
vt 0.000000 1.000000
vn 0.0000 1.0000 0.0000
usemtl None
s off
f 1/1/1 2/2/1 4/3/1 3/4/1
o Plane.001_Plane.002
v -3.000000 0.000000 -1.000000
v 2.000000 0.000000 -1.000000
v -3.000000 0.000000 -3.000000
v 2.000000 0.000000 -3.000000
vt 0.000000 0.000000
vt 1.000000 0.000000
vt 1.000000 1.000000
vt 0.000000 1.000000
vn 0.0000 1.0000 0.0000
usemtl None
s off
f 5/5/2 6/6/2 8/7/2 7/8/2
o Plane.011_Plane.012
v -3.000000 0.000000 -3.000000
v 2.000000 0.000000 -3.000000
v -3.000000 0.000000 -7.000000
v 2.000000 0.000000 -7.000000
vt 0.000000 0.000000
vt 1.000000 0.000000
vt 1.000000 1.000000
vt 0.000000 1.000000
vn 0.0000 1.0000 0.0000
usemtl None
s off
f 9/9/3 10/10/3 12/11/3 11/12/3
o Cube_Cube.002
v 0.803246 0.001691 -3.009223
v 0.803246 0.246369 -3.009223
v 0.803246 0.001691 -3.509223
v 0.803246 0.246369 -3.509223
v 2.303246 0.001691 -3.009223
v 2.303246 0.246369 -3.009223
v 2.303246 0.001691 -3.509223
v 2.303246 0.246369 -3.509223
vt 0.375000 0.000000
vt 0.625000 0.000000
vt 0.625000 0.250000
vt 0.375000 0.250000
vt 0.625000 0.500000
vt 0.375000 0.500000
vt 0.625000 0.750000
vt 0.375000 0.750000
vt 0.625000 1.000000
vt 0.375000 1.000000
vt 0.125000 0.500000
vt 0.125000 0.750000
vt 0.875000 0.500000
vt 0.875000 0.750000
vn -1.0000 0.0000 0.0000
vn 0.0000 0.0000 -1.0000
vn 1.0000 0.0000 0.0000
vn 0.0000 0.0000 1.0000
vn 0.0000 -1.0000 0.0000
vn 0.0000 1.0000 0.0000
usemtl None
s off
f 13/13/4 14/14/4 16/15/4 15/16/4
f 15/16/5 16/15/5 20/17/5 19/18/5
f 19/18/6 20/17/6 18/19/6 17/20/6
f 17/20/7 18/19/7 14/21/7 13/22/7
f 15/23/8 19/18/8 17/20/8 13/24/8
f 20/17/9 16/25/9 14/26/9 18/19/9
o Cube.001_Cube.003
v 0.803246 0.246369 -3.500000
v 0.803246 0.491048 -3.500000
v 0.803246 0.246369 -4.000000
v 0.803246 0.491048 -4.000000
v 2.303246 0.246369 -3.500000
v 2.303246 0.491048 -3.500000
v 2.303246 0.246369 -4.000000
v 2.303246 0.491048 -4.000000
vt 0.375000 0.000000
vt 0.625000 0.000000
vt 0.625000 0.250000
vt 0.375000 0.250000
vt 0.625000 0.500000
vt 0.375000 0.500000
vt 0.625000 0.750000
vt 0.375000 0.750000
vt 0.625000 1.000000
vt 0.375000 1.000000
vt 0.125000 0.500000
vt 0.125000 0.750000
vt 0.875000 0.500000
vt 0.875000 0.750000
vn -1.0000 0.0000 0.0000
vn 0.0000 0.0000 -1.0000
vn 1.0000 0.0000 0.0000
vn 0.0000 0.0000 1.0000
vn 0.0000 -1.0000 0.0000
vn 0.0000 1.0000 0.0000
usemtl None
s off
f 21/27/10 22/28/10 24/29/10 23/30/10
f 23/30/11 24/29/11 28/31/11 27/32/11
f 27/32/12 28/31/12 26/33/12 25/34/12
f 25/34/13 26/33/13 22/35/13 21/36/13
f 23/37/14 27/32/14 25/34/14 21/38/14
f 28/31/15 24/39/15 22/40/15 26/33/15
o Cube.002_Cube.004
v 0.803246 0.438474 -4.005102
v 0.803246 0.683153 -4.005102
v 0.803246 0.438474 -4.505102
v 0.803246 0.683153 -4.505102
v 2.303246 0.438474 -4.005102
v 2.303246 0.683153 -4.005102
v 2.303246 0.438474 -4.505102
v 2.303246 0.683153 -4.505102
vt 0.375000 0.000000
vt 0.625000 0.000000
vt 0.625000 0.250000
vt 0.375000 0.250000
vt 0.625000 0.500000
vt 0.375000 0.500000
vt 0.625000 0.750000
vt 0.375000 0.750000
vt 0.625000 1.000000
vt 0.375000 1.000000
vt 0.125000 0.500000
vt 0.125000 0.750000
vt 0.875000 0.500000
vt 0.875000 0.750000
vn -1.0000 0.0000 0.0000
vn 0.0000 0.0000 -1.0000
vn 1.0000 0.0000 0.0000
vn 0.0000 0.0000 1.0000
vn 0.0000 -1.0000 0.0000
vn 0.0000 1.0000 0.0000
usemtl None
s off
f 29/41/16 30/42/16 32/43/16 31/44/16
f 31/44/17 32/43/17 36/45/17 35/46/17
f 35/46/18 36/45/18 34/47/18 33/48/18
f 33/48/19 34/47/19 30/49/19 29/50/19
f 31/51/20 35/46/20 33/48/20 29/52/20
f 36/45/21 32/53/21 30/54/21 34/47/21
o Cube.003_Cube.005
v 0.803246 0.683153 -4.495879
v 0.803246 0.927831 -4.495879
v 0.803246 0.683153 -4.995879
v 0.803246 0.927831 -4.995879
v 2.303246 0.683153 -4.495879
v 2.303246 0.927831 -4.495879
v 2.303246 0.683153 -4.995879
v 2.303246 0.927831 -4.995879
vt 0.375000 0.000000
vt 0.625000 0.000000
vt 0.625000 0.250000
vt 0.375000 0.250000
vt 0.625000 0.500000
vt 0.375000 0.500000
vt 0.625000 0.750000
vt 0.375000 0.750000
vt 0.625000 1.000000
vt 0.375000 1.000000
vt 0.125000 0.500000
vt 0.125000 0.750000
vt 0.875000 0.500000
vt 0.875000 0.750000
vn -1.0000 0.0000 0.0000
vn 0.0000 0.0000 -1.0000
vn 1.0000 0.0000 0.0000
vn 0.0000 0.0000 1.0000
vn 0.0000 -1.0000 0.0000
vn 0.0000 1.0000 0.0000
usemtl None
s off
f 37/55/22 38/56/22 40/57/22 39/58/22
f 39/58/23 40/57/23 44/59/23 43/60/23
f 43/60/24 44/59/24 42/61/24 41/62/24
f 41/62/25 42/61/25 38/63/25 37/64/25
f 39/65/26 43/60/26 41/62/26 37/66/26
f 44/59/27 40/67/27 38/68/27 42/61/27
o Cube.004_Cube.006
v 0.803246 0.917990 -4.996849
v 0.803246 1.162668 -4.996849
v 0.803246 0.917990 -5.496849
v 0.803246 1.162668 -5.496849
v 2.303246 0.917990 -4.996849
v 2.303246 1.162668 -4.996849
v 2.303246 0.917990 -5.496849
v 2.303246 1.162668 -5.496849
vt 0.375000 0.000000
vt 0.625000 0.000000
vt 0.625000 0.250000
vt 0.375000 0.250000
vt 0.625000 0.500000
vt 0.375000 0.500000
vt 0.625000 0.750000
vt 0.375000 0.750000
vt 0.625000 1.000000
vt 0.375000 1.000000
vt 0.125000 0.500000
vt 0.125000 0.750000
vt 0.875000 0.500000
vt 0.875000 0.750000
vn -1.0000 0.0000 0.0000
vn 0.0000 0.0000 -1.0000
vn 1.0000 0.0000 0.0000
vn 0.0000 0.0000 1.0000
vn 0.0000 -1.0000 0.0000
vn 0.0000 1.0000 0.0000
usemtl None
s off
f 45/69/28 46/70/28 48/71/28 47/72/28
f 47/72/29 48/71/29 52/73/29 51/74/29
f 51/74/30 52/73/30 50/75/30 49/76/30
f 49/76/31 50/75/31 46/77/31 45/78/31
f 47/79/32 51/74/32 49/76/32 45/80/32
f 52/73/33 48/81/33 46/82/33 50/75/33
o Cube.005_Cube.007
v 0.803246 1.162668 -5.487626
v 0.803246 1.407347 -5.487626
v 0.803246 1.162668 -5.987626
v 0.803246 1.407347 -5.987626
v 2.303246 1.162668 -5.487626
v 2.303246 1.407347 -5.487626
v 2.303246 1.162668 -5.987626
v 2.303246 1.407347 -5.987626
vt 0.375000 0.000000
vt 0.625000 0.000000
vt 0.625000 0.250000
vt 0.375000 0.250000
vt 0.625000 0.500000
vt 0.375000 0.500000
vt 0.625000 0.750000
vt 0.375000 0.750000
vt 0.625000 1.000000
vt 0.375000 1.000000
vt 0.125000 0.500000
vt 0.125000 0.750000
vt 0.875000 0.500000
vt 0.875000 0.750000
vn -1.0000 0.0000 0.0000
vn 0.0000 0.0000 -1.0000
vn 1.0000 0.0000 0.0000
vn 0.0000 0.0000 1.0000
vn 0.0000 -1.0000 0.0000
vn 0.0000 1.0000 0.0000
usemtl None
s off
f 53/83/34 54/84/34 56/85/34 55/86/34
f 55/86/35 56/85/35 60/87/35 59/88/35
f 59/88/36 60/87/36 58/89/36 57/90/36
f 57/90/37 58/89/37 54/91/37 53/92/37
f 55/93/38 59/88/38 57/90/38 53/94/38
f 60/87/39 56/95/39 54/96/39 58/89/39
o Cube.006_Cube.008
v 0.803246 1.354773 -5.992727
v 0.803246 1.599452 -5.992727
v 0.803246 1.354773 -6.492727
v 0.803246 1.599452 -6.492727
v 2.303246 1.354773 -5.992727
v 2.303246 1.599452 -5.992727
v 2.303246 1.354773 -6.492727
v 2.303246 1.599452 -6.492727
vt 0.375000 0.000000
vt 0.625000 0.000000
vt 0.625000 0.250000
vt 0.375000 0.250000
vt 0.625000 0.500000
vt 0.375000 0.500000
vt 0.625000 0.750000
vt 0.375000 0.750000
vt 0.625000 1.000000
vt 0.375000 1.000000
vt 0.125000 0.500000
vt 0.125000 0.750000
vt 0.875000 0.500000
vt 0.875000 0.750000
vn -1.0000 0.0000 0.0000
vn 0.0000 0.0000 -1.0000
vn 1.0000 0.0000 0.0000
vn 0.0000 0.0000 1.0000
vn 0.0000 -1.0000 0.0000
vn 0.0000 1.0000 0.0000
usemtl None
s off
f 61/97/40 62/98/40 64/99/40 63/100/40
f 63/100/41 64/99/41 68/101/41 67/102/41
f 67/102/42 68/101/42 66/103/42 65/104/42
f 65/104/43 66/103/43 62/105/43 61/106/43
f 63/107/44 67/102/44 65/104/44 61/108/44
f 68/101/45 64/109/45 62/110/45 66/103/45
o Cube.007_Cube.009
v 0.803246 1.599452 -6.483505
v 0.803246 1.844131 -6.483505
v 0.803246 1.599452 -6.983505
v 0.803246 1.844131 -6.983505
v 2.303246 1.599452 -6.483505
v 2.303246 1.844131 -6.483505
v 2.303246 1.599452 -6.983505
v 2.303246 1.844131 -6.983505
vt 0.375000 0.000000
vt 0.625000 0.000000
vt 0.625000 0.250000
vt 0.375000 0.250000
vt 0.625000 0.500000
vt 0.375000 0.500000
vt 0.625000 0.750000
vt 0.375000 0.750000
vt 0.625000 1.000000
vt 0.375000 1.000000
vt 0.125000 0.500000
vt 0.125000 0.750000
vt 0.875000 0.500000
vt 0.875000 0.750000
vn -1.0000 0.0000 0.0000
vn 0.0000 0.0000 -1.0000
vn 1.0000 0.0000 0.0000
vn 0.0000 0.0000 1.0000
vn 0.0000 -1.0000 0.0000
vn 0.0000 1.0000 0.0000
usemtl None
s off
f 69/111/46 70/112/46 72/113/46 71/114/46
f 71/114/47 72/113/47 76/115/47 75/116/47
f 75/116/48 76/115/48 74/117/48 73/118/48
f 73/118/49 74/117/49 70/119/49 69/120/49
f 71/121/50 75/116/50 73/118/50 69/122/50
f 76/115/51 72/123/51 70/124/51 74/117/51
o Cube.008_Cube.010
v -2.999000 2.000000 -2.000000
v -2.999000 0.000000 -2.000000
v -3.001000 2.000000 -2.000000
v -3.001000 0.000000 -2.000000
v -2.999000 2.000000 -7.000000
v -2.999000 0.000000 -7.000000
v -3.001000 2.000000 -7.000000
v -3.001000 0.000000 -7.000000
vt 0.375000 0.000000
vt 0.375000 0.250000
vt 0.625000 0.250000
vt 0.625000 0.000000
vt 0.375000 0.500000
vt 0.625000 0.500000
vt 0.375000 0.750000
vt 0.625000 0.750000
vt 0.375000 1.000000
vt 0.625000 1.000000
vt 0.125000 0.500000
vt 0.125000 0.750000
vt 0.875000 0.750000
vt 0.875000 0.500000
vn 0.0000 0.0000 1.0000
vn -1.0000 0.0000 0.0000
vn 0.0000 0.0000 -1.0000
vn 1.0000 0.0000 -0.0000
vn 0.0000 1.0000 0.0000
vn 0.0000 -1.0000 0.0000
usemtl None
s off
f 77/125/52 79/126/52 80/127/52 78/128/52
f 79/126/53 83/129/53 84/130/53 80/127/53
f 83/129/54 81/131/54 82/132/54 84/130/54
f 81/131/55 77/133/55 78/134/55 82/132/55
f 79/135/56 77/136/56 81/131/56 83/129/56
f 84/130/57 82/132/57 78/137/57 80/138/57
o Cube.009_Cube.011
v -2.999000 2.000000 1.000000
v -2.999000 0.000000 1.000000
v -3.001000 2.000000 1.000000
v -3.001000 0.000000 1.000000
v -2.999000 2.000000 -1.000000
v -2.999000 0.000000 -1.000000
v -3.001000 2.000000 -1.000000
v -3.001000 0.000000 -1.000000
vt 0.375000 0.000000
vt 0.375000 0.250000
vt 0.625000 0.250000
vt 0.625000 0.000000
vt 0.375000 0.500000
vt 0.625000 0.500000
vt 0.375000 0.750000
vt 0.625000 0.750000
vt 0.375000 1.000000
vt 0.625000 1.000000
vt 0.125000 0.500000
vt 0.125000 0.750000
vt 0.875000 0.750000
vt 0.875000 0.500000
vn 0.0000 0.0000 1.0000
vn -1.0000 0.0000 0.0000
vn 0.0000 0.0000 -1.0000
vn 1.0000 0.0000 0.0000
vn 0.0000 1.0000 0.0000
vn 0.0000 -1.0000 0.0000
usemtl None
s off
f 85/139/58 87/140/58 88/141/58 86/142/58
f 87/140/59 91/143/59 92/144/59 88/141/59
f 91/143/60 89/145/60 90/146/60 92/144/60
f 89/145/61 85/147/61 86/148/61 90/146/61
f 87/149/62 85/150/62 89/145/62 91/143/62
f 92/144/63 90/146/63 86/151/63 88/152/63
o Cube.010_Cube.012
v -3.000000 2.000000 1.001000
v -3.000000 0.000000 1.001000
v -3.000000 2.000000 0.999000
v -3.000000 0.000000 0.999000
v 2.000000 2.000000 1.001000
v 2.000000 0.000000 1.001000
v 2.000000 2.000000 0.999000
v 2.000000 0.000000 0.999000
vt 0.375000 0.000000
vt 0.375000 0.250000
vt 0.625000 0.250000
vt 0.625000 0.000000
vt 0.375000 0.500000
vt 0.625000 0.500000
vt 0.375000 0.750000
vt 0.625000 0.750000
vt 0.375000 1.000000
vt 0.625000 1.000000
vt 0.125000 0.500000
vt 0.125000 0.750000
vt 0.875000 0.750000
vt 0.875000 0.500000
vn -1.0000 0.0000 0.0000
vn 0.0000 0.0000 -1.0000
vn 1.0000 0.0000 0.0000
vn 0.0000 0.0000 1.0000
vn 0.0000 1.0000 0.0000
vn 0.0000 -1.0000 0.0000
usemtl None
s off
f 93/153/64 95/154/64 96/155/64 94/156/64
f 95/154/65 99/157/65 100/158/65 96/155/65
f 99/157/66 97/159/66 98/160/66 100/158/66
f 97/159/67 93/161/67 94/162/67 98/160/67
f 95/163/68 93/164/68 97/159/68 99/157/68
f 100/158/69 98/160/69 94/165/69 96/166/69
o Cube.011_Cube.013
v 0.500000 2.000000 -2.999000
v 0.500000 0.000000 -2.999000
v 0.500000 2.000000 -3.001000
v 0.500000 0.000000 -3.001000
v 0.800000 2.000000 -2.999000
v 0.800000 0.000000 -2.999000
v 0.800000 2.000000 -3.001000
v 0.800000 0.000000 -3.001000
vt 0.375000 0.000000
vt 0.375000 0.250000
vt 0.625000 0.250000
vt 0.625000 0.000000
vt 0.375000 0.500000
vt 0.625000 0.500000
vt 0.375000 0.750000
vt 0.625000 0.750000
vt 0.375000 1.000000
vt 0.625000 1.000000
vt 0.125000 0.500000
vt 0.125000 0.750000
vt 0.875000 0.750000
vt 0.875000 0.500000
vn -1.0000 0.0000 0.0000
vn 0.0000 0.0000 -1.0000
vn 1.0000 0.0000 0.0000
vn 0.0000 0.0000 1.0000
vn 0.0000 1.0000 0.0000
vn 0.0000 -1.0000 0.0000
usemtl None
s off
f 101/167/70 103/168/70 104/169/70 102/170/70
f 103/168/71 107/171/71 108/172/71 104/169/71
f 107/171/72 105/173/72 106/174/72 108/172/72
f 105/173/73 101/175/73 102/176/73 106/174/73
f 103/177/74 101/178/74 105/173/74 107/171/74
f 108/172/75 106/174/75 102/179/75 104/180/75
o Cube.012_Cube.014
v -3.000000 2.000000 -6.999000
v -3.000000 0.000000 -6.999000
v -3.000000 2.000000 -7.001000
v -3.000000 0.000000 -7.001000
v -0.500000 2.000000 -6.999000
v -0.500000 0.000000 -6.999000
v -0.500000 2.000000 -7.001000
v -0.500000 0.000000 -7.001000
vt 0.375000 0.000000
vt 0.375000 0.250000
vt 0.625000 0.250000
vt 0.625000 0.000000
vt 0.375000 0.500000
vt 0.625000 0.500000
vt 0.375000 0.750000
vt 0.625000 0.750000
vt 0.375000 1.000000
vt 0.625000 1.000000
vt 0.125000 0.500000
vt 0.125000 0.750000
vt 0.875000 0.750000
vt 0.875000 0.500000
vn -1.0000 0.0000 0.0000
vn 0.0000 0.0000 -1.0000
vn 1.0000 0.0000 0.0000
vn 0.0000 0.0000 1.0000
vn 0.0000 1.0000 0.0000
vn 0.0000 -1.0000 0.0000
usemtl None
s off
f 109/181/76 111/182/76 112/183/76 110/184/76
f 111/182/77 115/185/77 116/186/77 112/183/77
f 115/185/78 113/187/78 114/188/78 116/186/78
f 113/187/79 109/189/79 110/190/79 114/188/79
f 111/191/80 109/192/80 113/187/80 115/185/80
f 116/186/81 114/188/81 110/193/81 112/194/81
o Cube.013_Cube.015
v 2.001000 2.000000 0.981906
v 2.001000 0.000000 0.981906
v 1.999000 2.000000 0.981906
v 1.999000 0.000000 0.981906
v 2.001000 2.000000 -7.018094
v 2.001000 0.000000 -7.018094
v 1.999000 2.000000 -7.018094
v 1.999000 0.000000 -7.018094
vt 0.375000 0.000000
vt 0.375000 0.250000
vt 0.625000 0.250000
vt 0.625000 0.000000
vt 0.375000 0.500000
vt 0.625000 0.500000
vt 0.375000 0.750000
vt 0.625000 0.750000
vt 0.375000 1.000000
vt 0.625000 1.000000
vt 0.125000 0.500000
vt 0.125000 0.750000
vt 0.875000 0.750000
vt 0.875000 0.500000
vn 0.0000 0.0000 1.0000
vn -1.0000 0.0000 0.0000
vn 0.0000 0.0000 -1.0000
vn 1.0000 0.0000 -0.0000
vn 0.0000 1.0000 0.0000
vn 0.0000 -1.0000 0.0000
usemtl None
s off
f 117/195/82 119/196/82 120/197/82 118/198/82
f 119/196/83 123/199/83 124/200/83 120/197/83
f 123/199/84 121/201/84 122/202/84 124/200/84
f 121/201/85 117/203/85 118/204/85 122/202/85
f 119/205/86 117/206/86 121/201/86 123/199/86
f 124/200/87 122/202/87 118/207/87 120/208/87
o Cube.014_Cube.016
v -2.199000 2.000000 -7.000000
v -2.199000 0.000000 -7.000000
v -2.201000 2.000000 -7.000000
v -2.201000 0.000000 -7.000000
v -2.199000 2.000000 -11.000000
v -2.199000 0.000000 -11.000000
v -2.201000 2.000000 -11.000000
v -2.201000 0.000000 -11.000000
vt 0.375000 0.000000
vt 0.375000 0.250000
vt 0.625000 0.250000
vt 0.625000 0.000000
vt 0.375000 0.500000
vt 0.625000 0.500000
vt 0.375000 0.750000
vt 0.625000 0.750000
vt 0.375000 1.000000
vt 0.625000 1.000000
vt 0.125000 0.500000
vt 0.125000 0.750000
vt 0.875000 0.750000
vt 0.875000 0.500000
vn 0.0000 0.0000 1.0000
vn -1.0000 0.0000 0.0000
vn 0.0000 0.0000 -1.0000
vn 1.0000 0.0000 -0.0000
vn 0.0000 1.0000 0.0000
vn 0.0000 -1.0000 0.0000
usemtl None
s off
f 125/209/88 127/210/88 128/211/88 126/212/88
f 127/210/89 131/213/89 132/214/89 128/211/89
f 131/213/90 129/215/90 130/216/90 132/214/90
f 129/215/91 125/217/91 126/218/91 130/216/91
f 127/219/92 125/220/92 129/215/92 131/213/92
f 132/214/93 130/216/93 126/221/93 128/222/93
o Cube.015_Cube.017
v 2.001000 2.000000 -7.000000
v 2.001000 0.000000 -7.000000
v 1.999000 2.000000 -7.000000
v 1.999000 0.000000 -7.000000
v 2.001000 2.000000 -11.000000
v 2.001000 0.000000 -11.000000
v 1.999000 2.000000 -11.000000
v 1.999000 0.000000 -11.000000
vt 0.375000 0.000000
vt 0.375000 0.250000
vt 0.625000 0.250000
vt 0.625000 0.000000
vt 0.375000 0.500000
vt 0.625000 0.500000
vt 0.375000 0.750000
vt 0.625000 0.750000
vt 0.375000 1.000000
vt 0.625000 1.000000
vt 0.125000 0.500000
vt 0.125000 0.750000
vt 0.875000 0.750000
vt 0.875000 0.500000
vn 0.0000 0.0000 1.0000
vn -1.0000 0.0000 0.0000
vn 0.0000 0.0000 -1.0000
vn 1.0000 0.0000 -0.0000
vn 0.0000 1.0000 0.0000
vn 0.0000 -1.0000 0.0000
usemtl None
s off
f 133/223/94 135/224/94 136/225/94 134/226/94
f 135/224/95 139/227/95 140/228/95 136/225/95
f 139/227/96 137/229/96 138/230/96 140/228/96
f 137/229/97 133/231/97 134/232/97 138/230/97
f 135/233/98 133/234/98 137/229/98 139/227/98
f 140/228/99 138/230/99 134/235/99 136/236/99
o Plane.002_Plane.025
v -3.000000 0.000000 -6.944387
v 2.000000 0.000000 -6.944387
v -3.000000 0.000000 -13.255613
v 2.000000 0.000000 -13.255613
vt 0.000000 0.000000
vt 1.000000 0.000000
vt 1.000000 1.000000
vt 0.000000 1.000000
vn 0.0000 1.0000 0.0000
usemtl None
s off
f 141/237/100 142/238/100 144/239/100 143/240/100
o Cube.016_Cube.018
v -3.000000 2.000000 -10.999000
v -3.000000 0.000000 -10.999000
v -3.000000 2.000000 -11.001000
v -3.000000 0.000000 -11.001000
v 2.000000 2.000000 -10.999000
v 2.000000 0.000000 -10.999000
v 2.000000 2.000000 -11.001000
v 2.000000 0.000000 -11.001000
vt 0.375000 0.000000
vt 0.375000 0.250000
vt 0.625000 0.250000
vt 0.625000 0.000000
vt 0.375000 0.500000
vt 0.625000 0.500000
vt 0.375000 0.750000
vt 0.625000 0.750000
vt 0.375000 1.000000
vt 0.625000 1.000000
vt 0.125000 0.500000
vt 0.125000 0.750000
vt 0.875000 0.750000
vt 0.875000 0.500000
vn -1.0000 0.0000 0.0000
vn 0.0000 0.0000 -1.0000
vn 1.0000 0.0000 0.0000
vn 0.0000 0.0000 1.0000
vn 0.0000 1.0000 0.0000
vn 0.0000 -1.0000 0.0000
usemtl None
s off
f 145/241/101 147/242/101 148/243/101 146/244/101
f 147/242/102 151/245/102 152/246/102 148/243/102
f 151/245/103 149/247/103 150/248/103 152/246/103
f 149/247/104 145/249/104 146/250/104 150/248/104
f 147/251/105 145/252/105 149/247/105 151/245/105
f 152/246/106 150/248/106 146/253/106 148/254/106
o Cube.017_Cube.019
v 0.801000 2.000000 -3.000000
v 0.801000 0.000000 -3.000000
v 0.799000 2.000000 -3.000000
v 0.799000 0.000000 -3.000000
v 0.801000 2.000000 -7.000000
v 0.801000 0.000000 -7.000000
v 0.799000 2.000000 -7.000000
v 0.799000 0.000000 -7.000000
vt 0.375000 0.000000
vt 0.375000 0.250000
vt 0.625000 0.250000
vt 0.625000 0.000000
vt 0.375000 0.500000
vt 0.625000 0.500000
vt 0.375000 0.750000
vt 0.625000 0.750000
vt 0.375000 1.000000
vt 0.625000 1.000000
vt 0.125000 0.500000
vt 0.125000 0.750000
vt 0.875000 0.750000
vt 0.875000 0.500000
vn 0.0000 0.0000 1.0000
vn -1.0000 0.0000 0.0000
vn 0.0000 0.0000 -1.0000
vn 1.0000 0.0000 -0.0000
vn 0.0000 1.0000 0.0000
vn 0.0000 -1.0000 0.0000
usemtl None
s off
f 153/255/107 155/256/107 156/257/107 154/258/107
f 155/256/108 159/259/108 160/260/108 156/257/108
f 159/259/109 157/261/109 158/262/109 160/260/109
f 157/261/110 153/263/110 154/264/110 158/262/110
f 155/265/111 153/266/111 157/261/111 159/259/111
f 160/260/112 158/262/112 154/267/112 156/268/112
o Cube.018_Cube.020
v 0.501000 2.000000 -3.000000
v 0.501000 0.000000 -3.000000
v 0.499000 2.000000 -3.000000
v 0.499000 0.000000 -3.000000
v 0.501000 2.000000 -7.000000
v 0.501000 0.000000 -7.000000
v 0.499000 2.000000 -7.000000
v 0.499000 0.000000 -7.000000
vt 0.375000 0.000000
vt 0.375000 0.250000
vt 0.625000 0.250000
vt 0.625000 0.000000
vt 0.375000 0.500000
vt 0.625000 0.500000
vt 0.375000 0.750000
vt 0.625000 0.750000
vt 0.375000 1.000000
vt 0.625000 1.000000
vt 0.125000 0.500000
vt 0.125000 0.750000
vt 0.875000 0.750000
vt 0.875000 0.500000
vn 0.0000 0.0000 1.0000
vn -1.0000 0.0000 0.0000
vn 0.0000 0.0000 -1.0000
vn 1.0000 0.0000 -0.0000
vn 0.0000 1.0000 0.0000
vn 0.0000 -1.0000 0.0000
usemtl None
s off
f 161/269/113 163/270/113 164/271/113 162/272/113
f 163/270/114 167/273/114 168/274/114 164/271/114
f 167/273/115 165/275/115 166/276/115 168/274/115
f 165/275/116 161/277/116 162/278/116 166/276/116
f 163/279/117 161/280/117 165/275/117 167/273/117
f 168/274/118 166/276/118 162/281/118 164/282/118
o Cube.019_Cube.021
v 0.500000 2.000000 -6.999000
v 0.500000 0.000000 -6.999000
v 0.500000 2.000000 -7.001000
v 0.500000 0.000000 -7.001000
v 3.000000 2.000000 -6.999000
v 3.000000 0.000000 -6.999000
v 3.000000 2.000000 -7.001000
v 3.000000 0.000000 -7.001000
vt 0.375000 0.000000
vt 0.375000 0.250000
vt 0.625000 0.250000
vt 0.625000 0.000000
vt 0.375000 0.500000
vt 0.625000 0.500000
vt 0.375000 0.750000
vt 0.625000 0.750000
vt 0.375000 1.000000
vt 0.625000 1.000000
vt 0.125000 0.500000
vt 0.125000 0.750000
vt 0.875000 0.750000
vt 0.875000 0.500000
vn -1.0000 0.0000 0.0000
vn 0.0000 0.0000 -1.0000
vn 1.0000 0.0000 0.0000
vn 0.0000 0.0000 1.0000
vn 0.0000 1.0000 0.0000
vn 0.0000 -1.0000 0.0000
usemtl None
s off
f 169/283/119 171/284/119 172/285/119 170/286/119
f 171/284/120 175/287/120 176/288/120 172/285/120
f 175/287/121 173/289/121 174/290/121 176/288/121
f 173/289/122 169/291/122 170/292/122 174/290/122
f 171/293/123 169/294/123 173/289/123 175/287/123
f 176/288/124 174/290/124 170/295/124 172/296/124
